<?xml version="1.0" encoding="UTF-8"?>
<!DOCTYPE svg PUBLIC "-//W3C//DTD SVG 1.1//EN" "http://www.w3.org/Graphics/SVG/1.1/DTD/svg11.dtd">
<svg xmlns="http://www.w3.org/2000/svg" version="1.1" width="512px" height="512px" style="shape-rendering:geometricPrecision; text-rendering:geometricPrecision; image-rendering:optimizeQuality; fill-rule:evenodd; clip-rule:evenodd" xmlns:xlink="http://www.w3.org/1999/xlink">
<g><path style="opacity:1" fill="#64c37d" d="M 383.5,-0.5 C 385.833,-0.5 388.167,-0.5 390.5,-0.5C 390.5,46.5 390.5,93.5 390.5,140.5C 377.811,139.471 370.144,132.804 367.5,120.5C 367.5,111.167 367.5,101.833 367.5,92.5C 358.167,92.5 348.833,92.5 339.5,92.5C 327.441,89.9338 320.774,82.4338 319.5,70C 320.416,56.5905 327.416,48.7572 340.5,46.5C 349.5,46.5 358.5,46.5 367.5,46.5C 367.5,37.1667 367.5,27.8333 367.5,18.5C 369.239,9.09726 374.573,2.76393 383.5,-0.5 Z"/></g>
<g><path style="opacity:0.97" fill="#94d6a5" d="M 390.5,-0.5 C 392.833,-0.5 395.167,-0.5 397.5,-0.5C 406.761,2.9386 412.261,9.60526 414,19.5C 414.5,28.1603 414.666,36.8269 414.5,45.5C 423.173,45.3336 431.84,45.5002 440.5,46C 457.963,50.7489 464.129,61.9155 459,79.5C 455.495,87.003 449.662,91.503 441.5,93C 432.506,93.4998 423.506,93.6664 414.5,93.5C 414.666,102.173 414.5,110.84 414,119.5C 411.348,132.319 403.515,139.319 390.5,140.5C 390.5,93.5 390.5,46.5 390.5,-0.5 Z"/></g>
<g><path style="opacity:0.65" fill="#76ca8c" d="M 367.5,18.5 C 367.5,27.8333 367.5,37.1667 367.5,46.5C 358.5,46.5 349.5,46.5 340.5,46.5C 348.984,45.507 357.651,45.1736 366.5,45.5C 366.173,36.3178 366.507,27.3178 367.5,18.5 Z"/></g>
<g><path style="opacity:0.651" fill="#76ca8c" d="M 339.5,92.5 C 348.833,92.5 358.167,92.5 367.5,92.5C 367.5,101.833 367.5,111.167 367.5,120.5C 366.507,111.682 366.173,102.682 366.5,93.5C 357.318,93.8266 348.318,93.4933 339.5,92.5 Z"/></g>
<g><path style="opacity:0.99" fill="#5185f9" d="M 203.5,364.5 C 156.992,278.145 109.992,192.145 62.5,106.5C 71.1195,101.292 79.7862,101.459 88.5,107C 189.33,172.582 290.33,237.916 391.5,303C 401.211,310.805 404.045,320.638 400,332.5C 396.686,339.149 391.519,343.649 384.5,346C 324.19,352.431 263.856,358.598 203.5,364.5 Z"/></g>
<g><path style="opacity:1" fill="#424ede" d="M 62.5,106.5 C 109.992,192.145 156.992,278.145 203.5,364.5C 165.425,412.749 126.759,460.582 87.5,508C 85.0748,509.213 82.7415,510.379 80.5,511.5C 75.8333,511.5 71.1667,511.5 66.5,511.5C 62.8075,509.562 59.3075,507.229 56,504.5C 54.0797,501.661 52.4131,498.661 51,495.5C 50.3333,371.5 50.3333,247.5 51,123.5C 51.8803,115.713 55.7136,110.046 62.5,106.5 Z"/></g>
</svg>
