<?xml version="1.0" encoding="UTF-8"?>
<!DOCTYPE svg PUBLIC "-//W3C//DTD SVG 1.1//EN" "http://www.w3.org/Graphics/SVG/1.1/DTD/svg11.dtd">
<svg xmlns="http://www.w3.org/2000/svg" version="1.1" width="512px" height="512px" style="shape-rendering:geometricPrecision; text-rendering:geometricPrecision; image-rendering:optimizeQuality; fill-rule:evenodd; clip-rule:evenodd" xmlns:xlink="http://www.w3.org/1999/xlink">
<g><path style="opacity:0.985" fill="#010101" d="M 458.5,-0.5 C 471.833,-0.5 485.167,-0.5 498.5,-0.5C 502.171,0.0981979 505.838,1.0982 509.5,2.5C 510.097,5.97127 510.764,9.3046 511.5,12.5C 511.5,26.1667 511.5,39.8333 511.5,53.5C 506.486,92.3766 491.653,127.043 467,157.5C 454.029,171.471 440.696,185.138 427,198.5C 428.333,215.833 429.667,233.167 431,250.5C 426.333,255.167 421.667,259.833 417,264.5C 416.667,336.5 416.333,408.5 416,480.5C 414.478,496.265 406.311,506.598 391.5,511.5C 268.833,511.5 146.167,511.5 23.5,511.5C 17.9779,509.735 12.9779,506.902 8.5,503C 4.37379,498.4 1.37379,493.234 -0.5,487.5C -0.5,402.167 -0.5,316.833 -0.5,231.5C 2.36314,222.796 7.69647,215.963 15.5,211C 18.0891,209.803 20.7558,208.803 23.5,208C 94.1667,207.667 164.833,207.333 235.5,207C 246.833,195.667 258.167,184.333 269.5,173C 266,169.5 262.5,166 259,162.5C 247.667,173.833 236.333,185.167 225,196.5C 211.5,183 198,169.5 184.5,156C 209.833,130.667 235.167,105.333 260.5,80C 278.145,81.553 295.812,82.8863 313.5,84C 326.5,71 339.5,58 352.5,45C 383.46,19.6876 418.794,4.52089 458.5,-0.5 Z"/></g>
<g><path style="opacity:0.898" fill="#000000" d="M 248.5,1.5 C 253.072,4.56335 257.239,8.23001 261,12.5C 261.667,13.1667 261.667,13.8333 261,14.5C 240.167,35.3333 219.333,56.1667 198.5,77C 197.833,77.6667 197.167,77.6667 196.5,77C 193,73.5 189.5,70 186,66.5C 185.333,65.8333 185.333,65.1667 186,64.5C 207.035,43.632 227.868,22.632 248.5,1.5 Z"/></g>
<g><path style="opacity:1" fill="#dff983" d="M 461.5,15.5 C 472.857,15.3104 484.19,15.6437 495.5,16.5C 497.204,48.9459 491.371,79.9459 478,109.5C 452.653,84.3196 427.486,58.9862 402.5,33.5C 408.931,29.2913 415.931,26.1246 423.5,24C 436.085,20.1861 448.751,17.3528 461.5,15.5 Z"/></g>
<g><path style="opacity:0.895" fill="#000000" d="M 168.5,17.5 C 173.072,20.5633 177.239,24.23 181,28.5C 181.667,29.1667 181.667,29.8333 181,30.5C 165.5,46 150,61.5 134.5,77C 133.833,77.6667 133.167,77.6667 132.5,77C 129,73.5 125.5,70 122,66.5C 121.333,65.8333 121.333,65.1667 122,64.5C 137.702,48.9652 153.202,33.2986 168.5,17.5 Z"/></g>
<g><path style="opacity:1" fill="#fd8964" d="M 385.5,41.5 C 386.552,41.3505 387.552,41.5172 388.5,42C 415.874,69.0401 442.874,96.3735 469.5,124C 464.127,133.375 457.96,142.209 451,150.5C 420.986,180.68 390.82,210.68 360.5,240.5C 347.167,227.833 334.167,214.833 321.5,201.5C 332.152,190.347 342.986,179.347 354,168.5C 354.667,167.833 354.667,167.167 354,166.5C 350.833,163.333 347.667,160.167 344.5,157C 343.833,156.333 343.167,156.333 342.5,157C 331.653,168.014 320.653,178.848 309.5,189.5C 296.167,176.833 283.167,163.833 270.5,150.5C 299.986,120.514 329.653,90.6804 359.5,61C 368.056,54.236 376.723,47.736 385.5,41.5 Z"/></g>
<g><path style="opacity:1" fill="#d9f380" d="M 266.5,96.5 C 276.856,97.6356 287.189,98.969 297.5,100.5C 274.014,124.486 250.347,148.32 226.5,172C 225.5,172.667 224.5,172.667 223.5,172C 218.667,167.167 213.833,162.333 209,157.5C 208.333,156.5 208.333,155.5 209,154.5C 228.368,135.299 247.535,115.965 266.5,96.5 Z"/></g>
<g><path style="opacity:1" fill="#fffaf8" d="M 393.5,105.5 C 398.085,108.414 402.085,112.08 405.5,116.5C 402.167,120.5 398.5,124.167 394.5,127.5C 390.5,124.167 386.833,120.5 383.5,116.5C 386.855,112.813 390.189,109.147 393.5,105.5 Z"/></g>
<g><path style="opacity:1" fill="#2bc2f1" d="M 265.5,302.5 C 261.833,305.833 258.167,309.167 254.5,312.5C 252.704,311.207 251.037,309.707 249.5,308C 248.833,307.333 248.167,307.333 247.5,308C 240.667,314.833 233.833,321.667 227,328.5C 226.333,329.167 226.333,329.833 227,330.5C 229.04,332.37 230.873,334.37 232.5,336.5C 231.761,336.369 231.094,336.536 230.5,337C 220.319,347.348 209.986,357.514 199.5,367.5C 191.812,360.479 184.479,353.146 177.5,345.5C 207.465,315.035 237.632,284.701 268,254.5C 268.667,253.833 268.667,253.167 268,252.5C 264.833,249.333 261.667,246.167 258.5,243C 257.833,242.333 257.167,242.333 256.5,243C 226.299,273.368 195.965,303.535 165.5,333.5C 159.5,328.167 153.833,322.5 148.5,316.5C 156.411,310.094 163.911,303.094 171,295.5C 171.667,294.833 171.667,294.167 171,293.5C 169.293,291.963 167.793,290.296 166.5,288.5C 170.167,285.167 173.833,281.833 177.5,278.5C 178.962,279.458 180.295,280.624 181.5,282C 182.5,282.667 183.5,282.667 184.5,282C 217,249.5 249.5,217 282,184.5C 287.546,189.71 292.712,195.21 297.5,201C 291.044,208.457 284.211,215.624 277,222.5C 276.333,223.5 276.333,224.5 277,225.5C 279.833,228.333 282.667,231.167 285.5,234C 286.5,234.667 287.5,234.667 288.5,234C 295.667,226.833 302.833,219.667 310,212.5C 315.546,217.71 320.712,223.21 325.5,229C 304.374,251.126 282.874,272.96 261,294.5C 260.333,295.5 260.333,296.5 261,297.5C 262.707,299.037 264.207,300.704 265.5,302.5 Z"/></g>
<g><path style="opacity:1" fill="#def882" d="M 409.5,213.5 C 410.748,214.334 411.415,215.667 411.5,217.5C 412.803,226.494 413.636,235.494 414,244.5C 394.833,263.667 375.667,282.833 356.5,302C 355.5,302.667 354.5,302.667 353.5,302C 348.667,297.167 343.833,292.333 339,287.5C 338.333,286.833 338.333,286.167 339,285.5C 363.086,261.916 386.586,237.916 409.5,213.5 Z"/></g>
<g><path style="opacity:1" fill="#ced7db" d="M 26.5,223.5 C 90.8342,223.333 155.168,223.5 219.5,224C 214.5,229 209.5,234 204.5,239C 146.834,239.5 89.1676,239.667 31.5,239.5C 31.5,292.833 31.5,346.167 31.5,399.5C 148.833,399.5 266.167,399.5 383.5,399.5C 383.333,365.165 383.5,330.832 384,296.5C 389,291.5 394,286.5 399,281.5C 399.667,349.167 399.667,416.833 399,484.5C 396.833,489.333 393.333,492.833 388.5,495C 267.833,495.667 147.167,495.667 26.5,495C 21.2425,492.744 17.7425,488.91 16,483.5C 15.3333,400.833 15.3333,318.167 16,235.5C 17.9363,230.068 21.4363,226.068 26.5,223.5 Z"/></g>
<g><path style="opacity:1" fill="#c1c9cd" d="M 344.5,247.5 C 340.167,247.5 335.833,247.5 331.5,247.5C 333.461,245.037 335.628,242.703 338,240.5C 340.372,242.703 342.539,245.037 344.5,247.5 Z"/></g>
<g><path style="opacity:1" fill="#fbfdfe" d="M 177.5,345.5 C 171.035,351.464 164.702,357.631 158.5,364C 153.867,361.554 149.867,358.054 146.5,353.5C 152.855,346.813 159.188,340.146 165.5,333.5C 195.965,303.535 226.299,273.368 256.5,243C 257.167,242.333 257.833,242.333 258.5,243C 261.667,246.167 264.833,249.333 268,252.5C 268.667,253.167 268.667,253.833 268,254.5C 237.632,284.701 207.465,315.035 177.5,345.5 Z"/></g>
<g><path style="opacity:1" fill="#a5e6fe" d="M 331.5,247.5 C 335.833,247.5 340.167,247.5 344.5,247.5C 347.221,248.696 348.387,250.696 348,253.5C 337.167,264.333 326.333,275.167 315.5,286C 328.667,299.167 341.833,312.333 355,325.5C 359,321.5 363,317.5 367,313.5C 367.5,336.831 367.667,360.164 367.5,383.5C 260.833,383.5 154.167,383.5 47.5,383.5C 47.5,340.833 47.5,298.167 47.5,255.5C 94.1679,255.333 140.835,255.5 187.5,256C 182.667,260.833 177.833,265.667 173,270.5C 172.333,271.5 172.333,272.5 173,273.5C 174.707,275.037 176.207,276.704 177.5,278.5C 173.833,281.833 170.167,285.167 166.5,288.5C 164.704,287.207 163.037,285.707 161.5,284C 160.833,283.333 160.167,283.333 159.5,284C 152.667,290.833 145.833,297.667 139,304.5C 138.333,305.167 138.333,305.833 139,306.5C 142.371,309.703 145.538,313.036 148.5,316.5C 153.833,322.5 159.5,328.167 165.5,333.5C 159.188,340.146 152.855,346.813 146.5,353.5C 149.867,358.054 153.867,361.554 158.5,364C 164.702,357.631 171.035,351.464 177.5,345.5C 184.479,353.146 191.812,360.479 199.5,367.5C 209.986,357.514 220.319,347.348 230.5,337C 231.094,336.536 231.761,336.369 232.5,336.5C 233.962,337.458 235.295,338.624 236.5,340C 237.167,340.667 237.833,340.667 238.5,340C 245.333,333.167 252.167,326.333 259,319.5C 259.667,318.833 259.667,318.167 259,317.5C 257.293,315.963 255.793,314.296 254.5,312.5C 258.167,309.167 261.833,305.833 265.5,302.5C 266.962,303.458 268.295,304.624 269.5,306C 270.5,306.667 271.5,306.667 272.5,306C 292.035,286.298 311.701,266.798 331.5,247.5 Z"/></g>
<g><path style="opacity:0.899" fill="#000000" d="M 496.5,249.5 C 501.072,252.563 505.239,256.23 509,260.5C 509.667,261.167 509.667,261.833 509,262.5C 488.167,283.333 467.333,304.167 446.5,325C 445.833,325.667 445.167,325.667 444.5,325C 441,321.5 437.5,318 434,314.5C 433.333,313.833 433.333,313.167 434,312.5C 455.035,291.632 475.868,270.632 496.5,249.5 Z"/></g>
<g><path style="opacity:1" fill="#050809" d="M 166.5,288.5 C 167.793,290.296 169.293,291.963 171,293.5C 171.667,294.167 171.667,294.833 171,295.5C 163.911,303.094 156.411,310.094 148.5,316.5C 145.538,313.036 142.371,309.703 139,306.5C 138.333,305.833 138.333,305.167 139,304.5C 145.833,297.667 152.667,290.833 159.5,284C 160.167,283.333 160.833,283.333 161.5,284C 163.037,285.707 164.704,287.207 166.5,288.5 Z"/></g>
<g><path style="opacity:1" fill="#040809" d="M 254.5,312.5 C 255.793,314.296 257.293,315.963 259,317.5C 259.667,318.167 259.667,318.833 259,319.5C 252.167,326.333 245.333,333.167 238.5,340C 237.833,340.667 237.167,340.667 236.5,340C 235.295,338.624 233.962,337.458 232.5,336.5C 230.873,334.37 229.04,332.37 227,330.5C 226.333,329.833 226.333,329.167 227,328.5C 233.833,321.667 240.667,314.833 247.5,308C 248.167,307.333 248.833,307.333 249.5,308C 251.037,309.707 252.704,311.207 254.5,312.5 Z"/></g>
<g><path style="opacity:0.897" fill="#000000" d="M 480.5,329.5 C 485.072,332.563 489.239,336.23 493,340.5C 493.667,341.167 493.667,341.833 493,342.5C 477.5,358 462,373.5 446.5,389C 445.833,389.667 445.167,389.667 444.5,389C 441,385.5 437.5,382 434,378.5C 433.333,377.833 433.333,377.167 434,376.5C 449.702,360.965 465.202,345.299 480.5,329.5 Z"/></g>
<g><path style="opacity:1" fill="#000000" d="M 231.5,415.5 C 276.833,415.5 322.167,415.5 367.5,415.5C 367.5,436.833 367.5,458.167 367.5,479.5C 322.167,479.5 276.833,479.5 231.5,479.5C 231.5,458.167 231.5,436.833 231.5,415.5 Z"/></g>
<g><path style="opacity:1" fill="#fefefe" d="M 31.5,423.5 C 42.1667,423.5 52.8333,423.5 63.5,423.5C 63.5,428.833 63.5,434.167 63.5,439.5C 52.8333,439.5 42.1667,439.5 31.5,439.5C 31.5,434.167 31.5,428.833 31.5,423.5 Z"/></g>
<g><path style="opacity:1" fill="#fefefe" d="M 79.5,423.5 C 90.1667,423.5 100.833,423.5 111.5,423.5C 111.5,428.833 111.5,434.167 111.5,439.5C 100.833,439.5 90.1667,439.5 79.5,439.5C 79.5,434.167 79.5,428.833 79.5,423.5 Z"/></g>
<g><path style="opacity:1" fill="#fefefe" d="M 127.5,423.5 C 154.167,423.5 180.833,423.5 207.5,423.5C 207.5,428.833 207.5,434.167 207.5,439.5C 180.833,439.5 154.167,439.5 127.5,439.5C 127.5,434.167 127.5,428.833 127.5,423.5 Z"/></g>
<g><path style="opacity:1" fill="#e1fb84" d="M 247.5,431.5 C 266.167,431.5 284.833,431.5 303.5,431.5C 303.5,442.167 303.5,452.833 303.5,463.5C 284.833,463.5 266.167,463.5 247.5,463.5C 247.5,452.833 247.5,442.167 247.5,431.5 Z"/></g>
<g><path style="opacity:1" fill="#8dde77" d="M 319.5,431.5 C 330.167,431.5 340.833,431.5 351.5,431.5C 351.5,442.167 351.5,452.833 351.5,463.5C 340.833,463.5 330.167,463.5 319.5,463.5C 319.5,452.833 319.5,442.167 319.5,431.5 Z"/></g>
<g><path style="opacity:1" fill="#fefefe" d="M 31.5,455.5 C 90.1667,455.5 148.833,455.5 207.5,455.5C 207.5,460.833 207.5,466.167 207.5,471.5C 148.833,471.5 90.1667,471.5 31.5,471.5C 31.5,466.167 31.5,460.833 31.5,455.5 Z"/></g>
</svg>
