<?xml version="1.0" encoding="UTF-8"?>
<!DOCTYPE svg PUBLIC "-//W3C//DTD SVG 1.1//EN" "http://www.w3.org/Graphics/SVG/1.1/DTD/svg11.dtd">
<svg xmlns="http://www.w3.org/2000/svg" version="1.1" width="128px" height="128px" style="shape-rendering:geometricPrecision; text-rendering:geometricPrecision; image-rendering:optimizeQuality; fill-rule:evenodd; clip-rule:evenodd" xmlns:xlink="http://www.w3.org/1999/xlink">
<g><path style="opacity:0.961" fill="#f6dd60" d="M 58.5,-0.5 C 64.1667,-0.5 69.8333,-0.5 75.5,-0.5C 103.606,6.60633 120.94,24.273 127.5,52.5C 127.5,59.8333 127.5,67.1667 127.5,74.5C 120.056,102.944 102.056,120.611 73.5,127.5C 69.8333,127.5 66.1667,127.5 62.5,127.5C 56.1407,126.326 49.8074,124.659 43.5,122.5C 14.8713,108.598 1.70465,85.5983 4,53.5C 10.7845,23.8816 28.9512,5.88159 58.5,-0.5 Z"/></g>
<g><path style="opacity:1" fill="#e7b420" d="M 73.5,11.5 C 94.1839,17.0725 107.351,31.4058 113,54.5C 115.042,85.9123 101.208,106.246 71.5,115.5C 44.4955,118.358 25.3289,107.358 14,82.5C 5.17304,52.9971 14.0064,30.4971 40.5,15C 51.2732,10.565 62.2732,9.3983 73.5,11.5 Z"/></g>
<g><path style="opacity:1" fill="#f6dd60" d="M 82.5,43.5 C 81.1667,45.5 79.8333,47.5 78.5,49.5C 75.7113,46.117 72.0446,44.4503 67.5,44.5C 66.8872,50.2709 67.5539,55.6042 69.5,60.5C 75.9662,61.9753 80.6328,65.642 83.5,71.5C 84.1507,82.1948 79.1507,88.1948 68.5,89.5C 68.5,92.5 68.5,95.5 68.5,98.5C 66.5,98.5 64.5,98.5 62.5,98.5C 60.6565,96.7211 59.9898,94.3878 60.5,91.5C 56.6315,90.0486 52.6315,88.7152 48.5,87.5C 43.6043,84.8875 43.271,81.5541 47.5,77.5C 51.3148,80.5763 55.6481,82.243 60.5,82.5C 61.1641,80.0221 61.4975,77.3555 61.5,74.5C 61.4783,71.4098 60.8117,68.7432 59.5,66.5C 46.9029,64.6301 42.4029,57.6301 46,45.5C 49.4709,40.176 54.3042,37.176 60.5,36.5C 60.5,33.8333 60.5,31.1667 60.5,28.5C 62.8333,28.5 65.1667,28.5 67.5,28.5C 67.5,31.1667 67.5,33.8333 67.5,36.5C 73.4033,37.1234 78.4033,39.4568 82.5,43.5 Z"/></g>
<g><path style="opacity:0.988" fill="#fef1ba" d="M 51.5,-0.5 C 53.8333,-0.5 56.1667,-0.5 58.5,-0.5C 28.9512,5.88159 10.7845,23.8816 4,53.5C 1.70465,85.5983 14.8713,108.598 43.5,122.5C 43.1583,123.338 42.4916,123.672 41.5,123.5C 18.4292,114.431 4.42917,97.7643 -0.5,73.5C -0.5,66.5 -0.5,59.5 -0.5,52.5C 6.72488,24.9416 24.0582,7.2749 51.5,-0.5 Z"/></g>
<g><path style="opacity:0.999" fill="#cc9510" d="M 73.5,11.5 C 100.298,17.7934 114.632,34.6267 116.5,62C 115.731,91.9268 100.731,109.76 71.5,115.5C 101.208,106.246 115.042,85.9123 113,54.5C 107.351,31.4058 94.1839,17.0725 73.5,11.5 Z"/></g>
<g><path style="opacity:1" fill="#d09b14" d="M 78.5,49.5 C 75.5939,48.2134 72.5939,47.2134 69.5,46.5C 69.5,51.1667 69.5,55.8333 69.5,60.5C 67.5539,55.6042 66.8872,50.2709 67.5,44.5C 72.0446,44.4503 75.7113,46.117 78.5,49.5 Z"/></g>
<g><path style="opacity:1" fill="#c58b06" d="M 60.5,44.5 C 60.5,45.1667 60.5,45.8333 60.5,46.5C 58.9826,46.5106 57.8159,47.1772 57,48.5C 56.2432,50.3146 55.4098,51.9812 54.5,53.5C 54.1121,48.8909 56.1121,45.8909 60.5,44.5 Z"/></g>
<g><path style="opacity:1" fill="#edc73f" d="M 60.5,44.5 C 61.8124,49.0152 61.8124,53.6819 60.5,58.5C 59.8933,58.3764 59.56,58.0431 59.5,57.5C 60.4816,54.0381 60.815,50.3714 60.5,46.5C 60.5,45.8333 60.5,45.1667 60.5,44.5 Z"/></g>
<g><path style="opacity:1" fill="#cc9612" d="M 82.5,43.5 C 83.0431,43.56 83.3764,43.8933 83.5,44.5C 82.8333,46.1667 82.1667,47.8333 81.5,49.5C 80.3864,50.7759 79.3864,50.7759 78.5,49.5C 79.8333,47.5 81.1667,45.5 82.5,43.5 Z"/></g>
<g><path style="opacity:1" fill="#e6b21e" d="M 60.5,46.5 C 60.815,50.3714 60.4816,54.0381 59.5,57.5C 57.2512,56.9202 55.5846,55.5869 54.5,53.5C 55.4098,51.9812 56.2432,50.3146 57,48.5C 57.8159,47.1772 58.9826,46.5106 60.5,46.5 Z"/></g>
<g><path style="opacity:1" fill="#edc942" d="M 59.5,66.5 C 60.8117,68.7432 61.4783,71.4098 61.5,74.5C 61.4975,77.3555 61.1641,80.0221 60.5,82.5C 60.7825,77.0735 60.4491,71.7401 59.5,66.5 Z"/></g>
<g><path style="opacity:1" fill="#d09b13" d="M 72.5,72.5 C 71.5041,72.5858 70.6708,72.2524 70,71.5C 69.5017,74.8168 69.335,78.1501 69.5,81.5C 68.8826,81.6107 68.3826,81.944 68,82.5C 67.501,78.1794 67.3343,73.8461 67.5,69.5C 69.9328,69.2729 71.5994,70.2729 72.5,72.5 Z"/></g>
<g><path style="opacity:1" fill="#e9b521" d="M 72.5,72.5 C 73.6225,74.2884 73.7891,76.2884 73,78.5C 72.5776,80.4257 71.4109,81.4257 69.5,81.5C 69.335,78.1501 69.5017,74.8168 70,71.5C 70.6708,72.2524 71.5041,72.5858 72.5,72.5 Z"/></g>
<g><path style="opacity:1" fill="#c9920d" d="M 62.5,98.5 C 64.5,98.5 66.5,98.5 68.5,98.5C 68.5,95.5 68.5,92.5 68.5,89.5C 79.1507,88.1948 84.1507,82.1948 83.5,71.5C 86.2106,82.2751 81.544,88.9418 69.5,91.5C 69.5,94.1667 69.5,96.8333 69.5,99.5C 66.9407,99.8016 64.6074,99.4682 62.5,98.5 Z"/></g>
<g><path style="opacity:1" fill="#d09912" d="M 48.5,87.5 C 52.6315,88.7152 56.6315,90.0486 60.5,91.5C 55.8179,91.662 51.4845,90.4954 47.5,88C 47.7284,87.6012 48.0618,87.4346 48.5,87.5 Z"/></g>
<g><path style="opacity:0.627" fill="#fdeeab" d="M 43.5,122.5 C 49.8074,124.659 56.1407,126.326 62.5,127.5C 59.5,127.5 56.5,127.5 53.5,127.5C 49.4086,126.476 45.4086,125.143 41.5,123.5C 42.4916,123.672 43.1583,123.338 43.5,122.5 Z"/></g>
</svg>
