<?xml version="1.0" encoding="UTF-8"?>
<!DOCTYPE svg PUBLIC "-//W3C//DTD SVG 1.1//EN" "http://www.w3.org/Graphics/SVG/1.1/DTD/svg11.dtd">
<svg xmlns="http://www.w3.org/2000/svg" version="1.1" width="512px" height="512px" style="shape-rendering:geometricPrecision; text-rendering:geometricPrecision; image-rendering:optimizeQuality; fill-rule:evenodd; clip-rule:evenodd" xmlns:xlink="http://www.w3.org/1999/xlink">
<g><path style="opacity:0.952" fill="#363636" d="M 143.5,-0.5 C 152.5,-0.5 161.5,-0.5 170.5,-0.5C 204.72,5.8798 228.553,25.2131 242,57.5C 252.511,89.6026 247.677,119.103 227.5,146C 214.067,149.231 209.9,144.398 215,131.5C 234.567,102.313 234.234,73.3125 214,44.5C 190.395,18.1403 161.895,10.9737 128.5,23C 101.381,36.5502 87.0473,58.5502 85.5,89C 85.6511,106.457 91.1511,121.957 102,135.5C 103.331,145.167 99.1641,149 89.5,147C 80.5177,138.306 74.351,127.806 71,115.5C 61.3343,76.6305 71.501,44.1305 101.5,18C 114.15,8.62223 128.15,2.45556 143.5,-0.5 Z"/></g>
<g><path style="opacity:0.98" fill="#373737" d="M 443.5,293.5 C 441.139,296.179 438.139,297.512 434.5,297.5C 388.73,280.904 348.897,289.904 315,324.5C 291.603,352.771 284.603,384.771 294,420.5C 308.042,461.214 336.209,485.38 378.5,493C 426.934,496.542 462.434,477.042 485,434.5C 502.74,389.53 494.74,349.864 461,315.5C 460.153,311.928 460.653,308.594 462.5,305.5C 465.933,302.887 469.599,302.387 473.5,304C 494.493,323.821 507.16,347.988 511.5,376.5C 511.5,386.833 511.5,397.167 511.5,407.5C 502.838,457.338 474.505,490.505 426.5,507C 419.741,508.715 413.075,510.215 406.5,511.5C 396.833,511.5 387.167,511.5 377.5,511.5C 364.002,509.536 351.002,505.536 338.5,499.5C 333.999,504.676 328.665,508.676 322.5,511.5C 269.167,511.5 215.833,511.5 162.5,511.5C 156.035,508.882 150.869,504.548 147,498.5C 144.863,486.142 142.53,473.809 140,461.5C 136.946,453.054 132.613,445.388 127,438.5C 86.9706,398.138 47.3039,357.471 8,316.5C 4.10455,311.281 1.27122,305.614 -0.5,299.5C -0.5,292.833 -0.5,286.167 -0.5,279.5C 10.2464,251.294 30.2464,241.461 59.5,250C 62.6612,251.413 65.6612,253.08 68.5,255C 85,269.5 101.5,284 118,298.5C 118.333,220.833 118.667,143.167 119,65.5C 127.262,38.6144 145.095,28.7811 172.5,36C 184.329,41.1621 191.829,49.9954 195,62.5C 196.142,108.466 196.975,154.466 197.5,200.5C 212.323,193.211 226.657,194.044 240.5,203C 244.422,206.251 247.588,210.084 250,214.5C 270.175,198.953 289.175,200.286 307,218.5C 310.877,223.624 313.711,229.291 315.5,235.5C 341.167,223.555 360.333,230.222 373,255.5C 374.951,261.346 375.785,267.346 375.5,273.5C 398.074,270.096 419.74,273.096 440.5,282.5C 443.192,285.613 444.192,289.279 443.5,293.5 Z"/></g>
<g><path style="opacity:1" fill="#e4ba51" d="M 357.5,266.5 C 357.763,270.6 357.43,274.6 356.5,278.5C 311.538,293.965 284.038,324.965 274,371.5C 267.961,419.753 283.961,458.753 322,488.5C 322.667,489.5 322.667,490.5 322,491.5C 320.581,492.46 319.081,493.293 317.5,494C 267.167,494.667 216.833,494.667 166.5,494C 164.622,492.457 163.122,490.624 162,488.5C 162.224,467.506 156.224,448.506 144,431.5C 103,389.167 62,346.833 21,304.5C 13.3405,290.57 15.5071,278.403 27.5,268C 37.6912,263.058 47.6912,263.391 57.5,269C 79.5,288.333 101.5,307.667 123.5,327C 128.212,328.443 132.045,327.277 135,323.5C 135.333,238.5 135.667,153.5 136,68.5C 142.644,51.3988 154.144,46.8988 170.5,55C 174.104,57.7076 176.604,61.2076 178,65.5C 178.008,123.249 178.675,180.916 180,238.5C 183.42,242.753 187.587,243.587 192.5,241C 193.701,240.097 194.535,238.931 195,237.5C 196.245,220.916 205.078,212.75 221.5,213C 230.07,215.904 235.57,221.737 238,230.5C 238.148,236.249 238.814,241.915 240,247.5C 244.667,252.833 249.333,252.833 254,247.5C 254.269,239.019 257.435,231.853 263.5,226C 278.241,217.978 289.408,221.478 297,236.5C 298.27,248.096 298.936,259.762 299,271.5C 302.51,276.789 307.01,277.789 312.5,274.5C 313.584,273.335 314.417,272.002 315,270.5C 315.187,259.951 320.02,252.451 329.5,248C 344.705,245.428 354.038,251.595 357.5,266.5 Z"/></g>
<g><path style="opacity:1" fill="#706240" d="M 357.5,266.5 C 358.162,268.304 358.495,270.304 358.5,272.5C 358.461,274.952 357.794,276.952 356.5,278.5C 357.43,274.6 357.763,270.6 357.5,266.5 Z"/></g>
<g><path style="opacity:1" fill="#6361ed" d="M 443.5,293.5 C 450.35,296.683 456.683,300.683 462.5,305.5C 460.653,308.594 460.153,311.928 461,315.5C 494.74,349.864 502.74,389.53 485,434.5C 462.434,477.042 426.934,496.542 378.5,493C 336.209,485.38 308.042,461.214 294,420.5C 284.603,384.771 291.603,352.771 315,324.5C 348.897,289.904 388.73,280.904 434.5,297.5C 438.139,297.512 441.139,296.179 443.5,293.5 Z"/></g>
<g><path style="opacity:1" fill="#373739" d="M 413.5,332.5 C 439.642,330.477 452.142,342.477 451,368.5C 446.386,381.884 437.886,392.051 425.5,399C 419.37,404.124 414.37,410.124 410.5,417C 422.167,417.333 433.833,417.667 445.5,418C 451.543,420.884 453.043,425.384 450,431.5C 449.097,432.701 447.931,433.535 446.5,434C 430.167,434.667 413.833,434.667 397.5,434C 395.333,433.167 393.833,431.667 393,429.5C 391.554,419.732 393.554,410.732 399,402.5C 407.441,392.125 417.108,383.125 428,375.5C 434.715,369.1 436.048,361.766 432,353.5C 427.483,349.758 422.316,348.591 416.5,350C 414.714,350.785 413.214,351.951 412,353.5C 410.345,358.37 408.512,363.203 406.5,368C 402.122,371.487 397.955,371.32 394,367.5C 390.805,350.509 397.305,338.843 413.5,332.5 Z"/></g>
<g><path style="opacity:1" fill="#373738" d="M 329.5,383.5 C 332.794,383.259 335.794,384.092 338.5,386C 342.015,389.682 345.682,393.182 349.5,396.5C 354.018,392.148 358.684,387.981 363.5,384C 373.387,383.584 376.554,388.084 373,397.5C 369.167,401.333 365.333,405.167 361.5,409C 366.034,413.199 370.201,417.699 374,422.5C 375.519,431.647 371.686,435.481 362.5,434C 358.318,429.651 353.985,425.485 349.5,421.5C 344.982,425.852 340.316,430.019 335.5,434C 325.827,434.995 322.327,430.828 325,421.5C 329.167,417.333 333.333,413.167 337.5,409C 333.333,404.833 329.167,400.667 325,396.5C 323.243,390.825 324.743,386.492 329.5,383.5 Z"/></g>
</svg>
