<?xml version="1.0" encoding="UTF-8"?>
<!DOCTYPE svg PUBLIC "-//W3C//DTD SVG 1.1//EN" "http://www.w3.org/Graphics/SVG/1.1/DTD/svg11.dtd">
<svg xmlns="http://www.w3.org/2000/svg" version="1.1" width="512px" height="512px" style="shape-rendering:geometricPrecision; text-rendering:geometricPrecision; image-rendering:optimizeQuality; fill-rule:evenodd; clip-rule:evenodd" xmlns:xlink="http://www.w3.org/1999/xlink">
<g><path style="opacity:0.997" fill="#ffde3f" d="M 232.5,-0.5 C 240.167,-0.5 247.833,-0.5 255.5,-0.5C 255.5,170.167 255.5,340.833 255.5,511.5C 248.167,511.5 240.833,511.5 233.5,511.5C 135.213,499.024 64.3796,448.357 21,359.5C 9.60385,333.501 2.43719,306.501 -0.5,278.5C -0.5,263.167 -0.5,247.833 -0.5,232.5C 10.4489,144.436 53.7822,77.6027 129.5,32C 161.76,14.1924 196.093,3.35906 232.5,-0.5 Z"/></g>
<g><path style="opacity:1" fill="#ffbe3f" d="M 255.5,-0.5 C 263.167,-0.5 270.833,-0.5 278.5,-0.5C 367.315,10.8019 434.482,54.8019 480,131.5C 497.171,163.212 507.671,196.879 511.5,232.5C 511.5,247.833 511.5,263.167 511.5,278.5C 501.356,361.992 461.356,426.826 391.5,473C 356.409,494.726 318.409,507.559 277.5,511.5C 270.167,511.5 262.833,511.5 255.5,511.5C 255.5,340.833 255.5,170.167 255.5,-0.5 Z"/></g>
<g><path style="opacity:1" fill="#ffbe40" d="M 231.5,61.5 C 234.167,61.5 236.833,61.5 239.5,61.5C 239.884,71.5214 240.551,81.5214 241.5,91.5C 222.476,92.7977 204.309,97.4644 187,105.5C 182.231,97.0692 177.731,88.4026 173.5,79.5C 181.433,75.1308 189.766,71.6308 198.5,69C 209.512,65.8913 220.512,63.3913 231.5,61.5 Z"/></g>
<g><path style="opacity:1" fill="#ff9f40" d="M 272.5,61.5 C 294.8,63.4884 316.134,69.1551 336.5,78.5C 337.372,80.4658 337.205,82.4658 336,84.5C 332.267,91.295 329.101,98.295 326.5,105.5C 314.62,101.399 302.62,97.5655 290.5,94C 283.83,93.1185 277.164,92.2851 270.5,91.5C 270.866,81.4782 271.532,71.4782 272.5,61.5 Z"/></g>
<g><path style="opacity:1" fill="#ffbe3f" d="M 143.5,95.5 C 149.318,103.498 154.985,111.665 160.5,120C 145.002,131.332 131.668,144.832 120.5,160.5C 112.111,155.312 104.111,149.646 96.5,143.5C 109.508,124.826 125.174,108.826 143.5,95.5 Z"/></g>
<g><path style="opacity:1" fill="#ff9f40" d="M 367.5,96.5 C 386.291,109.458 402.291,125.291 415.5,144C 407.245,149.711 399.079,155.544 391,161.5C 380.021,145.355 366.521,131.688 350.5,120.5C 356.192,112.482 361.858,104.482 367.5,96.5 Z"/></g>
<g><path style="opacity:1" fill="#ffbe40" d="M 78.5,173.5 C 87.252,177.041 95.9187,180.874 104.5,185C 105.022,185.561 105.355,186.228 105.5,187C 97.6239,204.005 92.9573,221.838 91.5,240.5C 81.448,240.495 71.448,239.828 61.5,238.5C 63.2602,215.792 68.9268,194.125 78.5,173.5 Z"/></g>
<g><path style="opacity:1" fill="#ff9f40" d="M 431.5,173.5 C 436.571,182.186 440.405,191.52 443,201.5C 446.652,213.924 448.818,226.59 449.5,239.5C 439.504,240.227 429.504,240.894 419.5,241.5C 418.404,222.436 413.738,204.27 405.5,187C 414.043,182.229 422.71,177.729 431.5,173.5 Z"/></g>
<g><path style="opacity:1" fill="#ff9f3f" d="M 307.5,180.5 C 328.123,178.528 343.956,186.195 355,203.5C 362.284,218.103 362.284,232.769 355,247.5C 343.29,265.086 331.457,282.586 319.5,300C 333.163,300.5 346.829,300.667 360.5,300.5C 360.5,310.5 360.5,320.5 360.5,330.5C 328.493,330.833 296.493,330.5 264.5,329.5C 285.804,297.031 307.304,264.697 329,232.5C 332.495,217.636 326.662,210.47 311.5,211C 306,212.5 302.5,216 301,221.5C 300.501,227.157 300.334,232.824 300.5,238.5C 290.5,238.5 280.5,238.5 270.5,238.5C 267.274,208.901 279.607,189.568 307.5,180.5 Z"/></g>
<g><path style="opacity:1" fill="#ffbe40" d="M 144.5,200.5 C 145.552,200.351 146.552,200.517 147.5,201C 158.347,212.014 169.347,222.848 180.5,233.5C 191.86,222.305 203.36,211.305 215,200.5C 221.957,206.455 228.624,212.789 235,219.5C 235.667,220.5 235.667,221.5 235,222.5C 223.986,233.347 213.152,244.347 202.5,255.5C 213.5,266.833 224.5,278.167 235.5,289.5C 228.81,297.368 221.477,304.202 213.5,310C 202.653,298.986 191.653,288.152 180.5,277.5C 169.167,288.5 157.833,299.5 146.5,310.5C 138.632,303.81 131.798,296.477 126,288.5C 137.014,277.653 147.848,266.653 158.5,255.5C 147.305,244.14 136.305,232.64 125.5,221C 131.659,214.008 137.992,207.175 144.5,200.5 Z"/></g>
<g><path style="opacity:1" fill="#ff9f40" d="M 419.5,269.5 C 429.504,270.106 439.504,270.773 449.5,271.5C 447.651,294.548 441.818,316.548 432,337.5C 422.906,333.368 414.072,328.868 405.5,324C 413.226,306.597 417.892,288.43 419.5,269.5 Z"/></g>
<g><path style="opacity:1" fill="#ffbe40" d="M 78.5,270.5 C 82.8333,270.5 87.1667,270.5 91.5,270.5C 93.2717,289.087 97.9384,306.92 105.5,324C 105.355,324.772 105.022,325.439 104.5,326C 96.273,329.697 88.1064,333.53 80,337.5C 78.1814,335.874 76.8481,333.874 76,331.5C 67.8709,312.65 63.0376,292.984 61.5,272.5C 67.329,272.032 72.9956,271.365 78.5,270.5 Z"/></g>
<g><path style="opacity:1" fill="#ff9f40" d="M 390.5,349.5 C 398.804,355.324 407.138,361.157 415.5,367C 402.333,385.5 386.5,401.333 368,414.5C 361.973,406.64 356.14,398.64 350.5,390.5C 366.565,379.436 379.899,365.769 390.5,349.5 Z"/></g>
<g><path style="opacity:1" fill="#ffbe3f" d="M 119.5,350.5 C 127.214,359.391 135.214,368.225 143.5,377C 149.383,381.436 155.049,386.103 160.5,391C 155.015,399.156 149.515,407.323 144,415.5C 125.312,402.312 109.479,386.312 96.5,367.5C 104.018,361.58 111.685,355.914 119.5,350.5 Z"/></g>
<g><path style="opacity:1" fill="#ffbe40" d="M 185.5,405.5 C 203.406,413.083 222.073,417.749 241.5,419.5C 240.36,429.455 239.694,439.455 239.5,449.5C 216.19,448.172 194.19,442.172 173.5,431.5C 178.059,423.051 182.059,414.384 185.5,405.5 Z"/></g>
<g><path style="opacity:1" fill="#ff9f40" d="M 322.5,405.5 C 324.39,405.297 325.89,405.963 327,407.5C 330.637,415.274 334.137,423.108 337.5,431C 337.167,431.5 336.833,432 336.5,432.5C 316.143,441.841 294.81,447.508 272.5,449.5C 271.894,439.496 271.227,429.496 270.5,419.5C 288.769,417.935 306.102,413.268 322.5,405.5 Z"/></g>
</svg>
