<?xml version="1.0" encoding="UTF-8"?>
<!DOCTYPE svg PUBLIC "-//W3C//DTD SVG 1.1//EN" "http://www.w3.org/Graphics/SVG/1.1/DTD/svg11.dtd">
<svg xmlns="http://www.w3.org/2000/svg" version="1.1" width="512px" height="512px" style="shape-rendering:geometricPrecision; text-rendering:geometricPrecision; image-rendering:optimizeQuality; fill-rule:evenodd; clip-rule:evenodd" xmlns:xlink="http://www.w3.org/1999/xlink">
<g><path style="opacity:0.978" fill="#c1b1ea" d="M 141.5,-0.5 C 217.833,-0.5 294.167,-0.5 370.5,-0.5C 383.288,4.94047 387.788,14.6071 384,28.5C 382.325,31.9851 380.158,34.9851 377.5,37.5C 375.66,35.832 373.66,34.332 371.5,33C 294.167,32.3333 216.833,32.3333 139.5,33C 137.963,34.7073 136.296,36.2073 134.5,37.5C 127.723,31.7664 125.223,24.4331 127,15.5C 128.91,7.42698 133.744,2.09364 141.5,-0.5 Z"/></g>
<g><path style="opacity:0.973" fill="#c2b2eb" d="M 511.5,53.5 C 511.5,55.5 511.5,57.5 511.5,59.5C 503.437,63.6146 495.27,67.6146 487,71.5C 483.598,80.5394 480.098,89.5394 476.5,98.5C 474.305,99.7691 472.139,99.7691 470,98.5C 466.803,89.9083 463.803,81.2416 461,72.5C 453.397,68.2823 445.564,64.449 437.5,61C 435.32,58.5823 434.987,55.9156 436.5,53C 445.057,49.472 453.224,45.3053 461,40.5C 463.864,32.9084 466.531,25.2418 469,17.5C 472,12.1667 475,12.1667 478,17.5C 480.578,26.475 484.078,34.975 488.5,43C 496.407,46.0223 504.074,49.5223 511.5,53.5 Z"/></g>
<g><path style="opacity:0.998" fill="#a171e3" d="M 377.5,37.5 C 378.728,41.1495 378.728,44.8162 377.5,48.5C 375.068,49.7502 372.734,51.2502 370.5,53C 356.504,53.4999 342.504,53.6666 328.5,53.5C 266.166,53.6667 203.832,53.5 141.5,53C 138.798,51.9879 136.465,50.4879 134.5,48.5C 133.242,44.8004 133.242,41.1337 134.5,37.5C 136.296,36.2073 137.963,34.7073 139.5,33C 216.833,32.3333 294.167,32.3333 371.5,33C 373.66,34.332 375.66,35.832 377.5,37.5 Z"/></g>
<g><path style="opacity:0.998" fill="#c2b1eb" d="M 134.5,48.5 C 136.465,50.4879 138.798,51.9879 141.5,53C 203.832,53.5 266.166,53.6667 328.5,53.5C 331.336,59.1712 334.169,64.8379 337,70.5C 338.257,76.7688 338.757,83.1021 338.5,89.5C 264.167,89.5 189.833,89.5 115.5,89.5C 115.421,86.7294 115.921,84.0627 117,81.5C 122.846,70.4731 128.679,59.4731 134.5,48.5 Z"/></g>
<g><path style="opacity:1" fill="#b28be8" d="M 377.5,48.5 C 383.563,59.6232 389.396,70.9566 395,82.5C 395.977,84.74 396.477,87.0733 396.5,89.5C 377.167,89.5 357.833,89.5 338.5,89.5C 338.757,83.1021 338.257,76.7688 337,70.5C 334.169,64.8379 331.336,59.1712 328.5,53.5C 342.504,53.6666 356.504,53.4999 370.5,53C 372.734,51.2502 375.068,49.7502 377.5,48.5 Z"/></g>
<g><path style="opacity:0.966" fill="#9781dd" d="M -0.5,88.5 C -0.5,84.5 -0.5,80.5 -0.5,76.5C 4.28044,65.6098 12.6138,61.4431 24.5,64C 38.0401,70.8659 41.2067,81.0326 34,94.5C 27.1208,101.545 18.9541,103.378 9.5,100C 4.83883,97.1822 1.50549,93.3489 -0.5,88.5 Z"/></g>
<g><path style="opacity:1" fill="#9781dc" d="M 115.5,89.5 C 189.833,89.5 264.167,89.5 338.5,89.5C 338.667,180.501 338.5,271.501 338,362.5C 335.949,378.869 327.449,390.369 312.5,397C 310.5,397.333 308.5,397.667 306.5,398C 255.5,398.667 204.5,398.667 153.5,398C 147.674,396.837 142.841,394.003 139,389.5C 130.808,375.117 123.142,360.45 116,345.5C 115.5,371.498 115.333,397.498 115.5,423.5C 115.167,423.5 114.833,423.5 114.5,423.5C 114.167,311.999 114.501,200.665 115.5,89.5 Z"/></g>
<g><path style="opacity:1" fill="#8962de" d="M 338.5,89.5 C 357.833,89.5 377.167,89.5 396.5,89.5C 397.828,200.973 397.828,312.306 396.5,423.5C 302.833,423.5 209.167,423.5 115.5,423.5C 115.333,397.498 115.5,371.498 116,345.5C 123.142,360.45 130.808,375.117 139,389.5C 142.841,394.003 147.674,396.837 153.5,398C 204.5,398.667 255.5,398.667 306.5,398C 308.5,397.667 310.5,397.333 312.5,397C 327.449,390.369 335.949,378.869 338,362.5C 338.5,271.501 338.667,180.501 338.5,89.5 Z"/></g>
<g><path style="opacity:1" fill="#fdfcfe" d="M 144.5,116.5 C 152.279,116.068 159.946,116.568 167.5,118C 172.563,121.87 173.73,126.704 171,132.5C 169.269,134.617 167.102,136.117 164.5,137C 158.167,137.667 151.833,137.667 145.5,137C 136.625,130.585 136.292,123.751 144.5,116.5 Z"/></g>
<g><path style="opacity:1" fill="#fdfdfe" d="M 193.5,116.5 C 215.836,116.333 238.169,116.5 260.5,117C 267.498,120.182 269.331,125.349 266,132.5C 264.363,134.81 262.196,136.31 259.5,137C 237.833,137.667 216.167,137.667 194.5,137C 187.586,133.23 185.753,127.73 189,120.5C 190.397,118.93 191.897,117.596 193.5,116.5 Z"/></g>
<g><path style="opacity:1" fill="#f5df6e" d="M 213.5,155.5 C 247.84,155.167 282.173,155.5 316.5,156.5C 306.5,180.833 296.5,205.167 286.5,229.5C 299.508,235.669 312.175,242.336 324.5,249.5C 293.141,290.358 261.975,331.358 231,372.5C 230.333,366.833 230.333,361.167 231,355.5C 232.754,331.161 234.588,306.828 236.5,282.5C 236.167,281.167 235.833,279.833 235.5,278.5C 219.5,270.5 203.5,262.5 187.5,254.5C 187.167,253.833 186.833,253.167 186.5,252.5C 195.356,220.072 204.356,187.738 213.5,155.5 Z"/></g>
<g><path style="opacity:0.924" fill="#9681dc" d="M 45.5,160.5 C 52.6027,159.202 56.6027,162.035 57.5,169C 57.3333,174.5 54.5,177.333 49,177.5C 41.8749,176.602 39.2083,172.602 41,165.5C 42.025,163.313 43.525,161.646 45.5,160.5 Z"/></g>
<g><path style="opacity:1" fill="#7844c1" d="M 356.5,314.5 C 359.809,314.308 362.309,315.641 364,318.5C 364.667,324.5 364.667,330.5 364,336.5C 360.74,341.285 357.073,341.619 353,337.5C 352.333,330.833 352.333,324.167 353,317.5C 354.145,316.364 355.312,315.364 356.5,314.5 Z"/></g>
<g><path style="opacity:1" fill="#7946c2" d="M 289.5,334.5 C 293.355,333.845 296.188,335.179 298,338.5C 298.667,344.5 298.667,350.5 298,356.5C 293.577,361.899 289.577,361.565 286,355.5C 285.333,349.833 285.333,344.167 286,338.5C 287.376,337.295 288.542,335.962 289.5,334.5 Z"/></g>
<g><path style="opacity:1" fill="#7845c1" d="M 321.5,354.5 C 324.862,354.07 327.695,355.07 330,357.5C 330.667,363.833 330.667,370.167 330,376.5C 326.822,381.371 323.155,381.704 319,377.5C 318.333,370.833 318.333,364.167 319,357.5C 320.045,356.627 320.878,355.627 321.5,354.5 Z"/></g>
<g><path style="opacity:1" fill="#b28be8" d="M 114.5,423.5 C 114.833,423.5 115.167,423.5 115.5,423.5C 209.167,423.5 302.833,423.5 396.5,423.5C 396.733,428.034 395.9,432.368 394,436.5C 387.742,448.687 381.242,460.687 374.5,472.5C 373.078,472.291 371.745,471.791 370.5,471C 293.833,470.333 217.167,470.333 140.5,471C 139.437,472.188 138.103,472.688 136.5,472.5C 130.346,460.86 124.179,449.194 118,437.5C 116.203,432.977 115.036,428.31 114.5,423.5 Z"/></g>
<g><path style="opacity:0.982" fill="#c1b1ea" d="M 374.5,472.5 C 379.221,474.215 382.388,477.548 384,482.5C 387.937,496.98 383.104,506.647 369.5,511.5C 293.5,511.5 217.5,511.5 141.5,511.5C 128.132,505.749 123.632,495.749 128,481.5C 129.659,477.342 132.492,474.342 136.5,472.5C 138.103,472.688 139.437,472.188 140.5,471C 217.167,470.333 293.833,470.333 370.5,471C 371.745,471.791 373.078,472.291 374.5,472.5 Z"/></g>
</svg>
