<?xml version="1.0" encoding="UTF-8"?>
<!DOCTYPE svg PUBLIC "-//W3C//DTD SVG 1.1//EN" "http://www.w3.org/Graphics/SVG/1.1/DTD/svg11.dtd">
<svg xmlns="http://www.w3.org/2000/svg" version="1.1" width="512px" height="512px" style="shape-rendering:geometricPrecision; text-rendering:geometricPrecision; image-rendering:optimizeQuality; fill-rule:evenodd; clip-rule:evenodd" xmlns:xlink="http://www.w3.org/1999/xlink">
<g><path style="opacity:0.989" fill="#020201" d="M 123.5,-0.5 C 129.5,-0.5 135.5,-0.5 141.5,-0.5C 145.317,0.840466 148.983,2.6738 152.5,5C 169.401,22.5651 186.234,40.0651 203,57.5C 238.525,56.3438 274.025,56.1771 309.5,57C 325.467,39.3647 341.801,22.0314 358.5,5C 362.017,2.6738 365.683,0.840466 369.5,-0.5C 375.5,-0.5 381.5,-0.5 387.5,-0.5C 406.326,6.43109 415.826,20.0978 416,40.5C 424.174,45.0096 429.841,51.6762 433,60.5C 434.113,70.11 434.613,79.7767 434.5,89.5C 434.486,98.2121 434.153,106.879 433.5,115.5C 444.485,116.332 455.485,116.832 466.5,117C 470,117.833 472.167,120 473,123.5C 473.667,160.833 473.667,198.167 473,235.5C 471.5,238.333 469.333,240.5 466.5,242C 462.179,242.499 457.846,242.666 453.5,242.5C 453.667,269.835 453.5,297.169 453,324.5C 451.078,328.597 447.912,330.93 443.5,331.5C 438.136,330.81 434.803,327.81 433.5,322.5C 433.5,295.5 433.5,268.5 433.5,241.5C 393.996,241.168 354.663,241.501 315.5,242.5C 315.333,255.504 315.5,268.504 316,281.5C 352.14,309.239 365.806,345.572 357,390.5C 350.995,415.853 337.495,436.186 316.5,451.5C 315.501,464.817 315.167,478.15 315.5,491.5C 353.228,491.981 390.895,491.481 428.5,490C 430.617,488.269 432.117,486.102 433,483.5C 433.333,457.833 433.667,432.167 434,406.5C 436.333,402.969 439.499,400.969 443.5,400.5C 448.187,400.761 451.353,403.094 453,407.5C 453.667,434.167 453.667,460.833 453,487.5C 449.719,499.61 442.219,507.61 430.5,511.5C 313.833,511.5 197.167,511.5 80.5,511.5C 68.7539,507.584 61.2539,499.584 58,487.5C 57.5,405.834 57.3333,324.167 57.5,242.5C 53.1539,242.666 48.8206,242.499 44.5,242C 41.6667,240.5 39.5,238.333 38,235.5C 37.3333,198.167 37.3333,160.833 38,123.5C 38.8333,120 41,117.833 44.5,117C 55.5151,116.832 66.5151,116.332 77.5,115.5C 76.847,106.879 76.5136,98.2121 76.5,89.5C 76.387,79.7767 76.887,70.11 78,60.5C 81.1592,51.6762 86.8259,45.0096 95,40.5C 95.1739,20.0978 104.674,6.43109 123.5,-0.5 Z"/></g>
<g><path style="opacity:1" fill="#86da8c" d="M 127.5,19.5 C 132.194,18.8955 136.528,19.7289 140.5,22C 156.051,37.7155 171.051,53.8821 185.5,70.5C 183.527,73.2458 182.027,76.2458 181,79.5C 164.5,67 148,54.5 131.5,42C 126.818,39.4132 121.818,37.9132 116.5,37.5C 116.108,28.9412 119.774,22.9412 127.5,19.5 Z"/></g>
<g><path style="opacity:1" fill="#86da8c" d="M 373.5,19.5 C 386.695,18.366 393.695,24.366 394.5,37.5C 389.062,37.4788 384.062,38.9788 379.5,42C 363,54.5 346.5,67 330,79.5C 328.581,76.0262 327.248,72.6929 326,69.5C 341.363,52.3062 357.196,35.6396 373.5,19.5 Z"/></g>
<g><path style="opacity:1" fill="#88dd8e" d="M 109.5,56.5 C 114.182,56.338 118.515,57.5046 122.5,60C 141.5,74.5 160.5,89 179.5,103.5C 180.492,107.783 180.826,112.116 180.5,116.5C 153.744,116.982 127.078,116.482 100.5,115C 98.5125,113.681 97.3459,111.848 97,109.5C 96.3333,95.8333 96.3333,82.1667 97,68.5C 99.2079,62.3375 103.375,58.3375 109.5,56.5 Z"/></g>
<g><path style="opacity:1" fill="#88dd8e" d="M 394.5,56.5 C 403.969,55.8227 410.469,59.8227 414,68.5C 414.667,82.1667 414.667,95.8333 414,109.5C 413.654,111.848 412.487,113.681 410.5,115C 383.922,116.482 357.256,116.982 330.5,116.5C 330.174,112.116 330.508,107.783 331.5,103.5C 352.26,87.3924 373.26,71.7257 394.5,56.5 Z"/></g>
<g><path style="opacity:1" fill="#87dc8d" d="M 207.5,76.5 C 240.229,76.0215 272.896,76.5215 305.5,78C 307.378,79.5429 308.878,81.3762 310,83.5C 310.5,94.495 310.667,105.495 310.5,116.5C 273.833,116.5 237.167,116.5 200.5,116.5C 200.333,105.495 200.5,94.495 201,83.5C 202.694,80.6424 204.861,78.309 207.5,76.5 Z"/></g>
<g><path style="opacity:1" fill="#919191" d="M 452.5,221.5 C 452.5,193.5 452.5,165.5 452.5,137.5C 321.167,137.5 189.833,137.5 58.5,137.5C 58.5,165.5 58.5,193.5 58.5,221.5C 57.502,193.338 57.1687,165.005 57.5,136.5C 189.5,136.5 321.5,136.5 453.5,136.5C 453.831,165.005 453.498,193.338 452.5,221.5 Z"/></g>
<g><path style="opacity:1" fill="#fefffe" d="M 452.5,221.5 C 321.167,221.5 189.833,221.5 58.5,221.5C 58.5,193.5 58.5,165.5 58.5,137.5C 189.833,137.5 321.167,137.5 452.5,137.5C 452.5,165.5 452.5,193.5 452.5,221.5 Z"/></g>
<g><path style="opacity:1" fill="#917c51" d="M 315.5,242.5 C 354.663,241.501 393.996,241.168 433.5,241.5C 433.5,268.5 433.5,295.5 433.5,322.5C 432.502,296.005 432.169,269.339 432.5,242.5C 393.5,242.5 354.5,242.5 315.5,242.5 Z"/></g>
<g><path style="opacity:1" fill="#84724a" d="M 195.5,242.5 C 156.5,242.5 117.5,242.5 78.5,242.5C 78.5,322.833 78.5,403.167 78.5,483.5C 77.5007,403.002 77.1674,322.335 77.5,241.5C 117.004,241.168 156.337,241.501 195.5,242.5 Z"/></g>
<g><path style="opacity:1" fill="#fed98e" d="M 195.5,242.5 C 195.667,255.504 195.5,268.504 195,281.5C 158.86,309.239 145.194,345.572 154,390.5C 160.001,415.841 173.501,436.175 194.5,451.5C 195.499,464.817 195.833,478.15 195.5,491.5C 158.498,491.667 121.498,491.5 84.5,491C 81.1828,489.52 79.1828,487.02 78.5,483.5C 78.5,403.167 78.5,322.833 78.5,242.5C 117.5,242.5 156.5,242.5 195.5,242.5 Z"/></g>
<g><path style="opacity:1" fill="#85d98b" d="M 215.5,241.5 C 242.167,241.5 268.833,241.5 295.5,241.5C 295.5,250.833 295.5,260.167 295.5,269.5C 268.788,260.274 242.121,260.274 215.5,269.5C 215.5,260.167 215.5,250.833 215.5,241.5 Z"/></g>
<g><path style="opacity:0.999" fill="#fed98e" d="M 315.5,242.5 C 354.5,242.5 393.5,242.5 432.5,242.5C 432.169,269.339 432.502,296.005 433.5,322.5C 434.803,327.81 438.136,330.81 443.5,331.5C 443.5,339.5 443.5,347.5 443.5,355.5C 433.7,357.667 431.034,363.334 435.5,372.5C 437.84,374.679 440.507,376.013 443.5,376.5C 443.5,384.5 443.5,392.5 443.5,400.5C 439.499,400.969 436.333,402.969 434,406.5C 433.667,432.167 433.333,457.833 433,483.5C 432.117,486.102 430.617,488.269 428.5,490C 390.895,491.481 353.228,491.981 315.5,491.5C 315.167,478.15 315.501,464.817 316.5,451.5C 337.495,436.186 350.995,415.853 357,390.5C 365.806,345.572 352.14,309.239 316,281.5C 315.5,268.504 315.333,255.504 315.5,242.5 Z"/></g>
<g><path style="opacity:1" fill="#f8f5f3" d="M 241.5,282.5 C 279.454,278.73 308.621,292.73 329,324.5C 341.489,349.204 342.822,374.537 333,400.5C 314.935,436.29 285.769,453.123 245.5,451C 212.139,445.239 188.972,426.739 176,395.5C 163.829,353.675 175.329,320.175 210.5,295C 220.248,289.117 230.582,284.95 241.5,282.5 Z"/></g>
<g><path style="opacity:1" fill="#040303" d="M 247.5,302.5 C 269.296,300.491 283.463,309.824 290,330.5C 291.325,340.544 289.325,349.877 284,358.5C 279.259,363.912 273.926,368.579 268,372.5C 266.118,376.988 264.785,381.655 264,386.5C 258.252,393.059 252.586,393.059 247,386.5C 244.266,377.022 245.933,368.356 252,360.5C 256.772,355.126 262.105,350.46 268,346.5C 272.591,337.321 270.758,329.821 262.5,324C 253.763,320.44 246.93,322.607 242,330.5C 241.033,335.262 239.699,339.929 238,344.5C 232.93,348.423 227.93,348.423 223,344.5C 220.093,338.661 219.76,332.661 222,326.5C 226.864,314.464 235.364,306.464 247.5,302.5 Z"/></g>
<g><path style="opacity:0.943" fill="#020201" d="M 443.5,355.5 C 452.385,357.602 455.218,362.935 452,371.5C 449.971,374.596 447.138,376.262 443.5,376.5C 440.507,376.013 437.84,374.679 435.5,372.5C 431.034,363.334 433.7,357.667 443.5,355.5 Z"/></g>
<g><path style="opacity:1" fill="#090908" d="M 251.5,411.5 C 262.786,410.78 266.953,415.78 264,426.5C 258.295,433.046 252.628,433.046 247,426.5C 244.064,420.058 245.564,415.058 251.5,411.5 Z"/></g>
<g><path style="opacity:1" fill="#87dd8d" d="M 215.5,463.5 C 241.774,474.017 268.107,474.017 294.5,463.5C 295.498,472.81 295.832,482.143 295.5,491.5C 268.833,491.5 242.167,491.5 215.5,491.5C 215.5,482.167 215.5,472.833 215.5,463.5 Z"/></g>
</svg>
