<svg width="58" height="215" viewBox="0 0 58 215" fill="none" xmlns="http://www.w3.org/2000/svg">
<path d="M1.00019 213.524C1.01334 214.352 1.69548 215.013 2.52381 215L16.0221 214.785C16.8504 214.772 17.5113 214.09 17.4981 213.262C17.485 212.434 16.8028 211.773 15.9745 211.786L3.976 211.976L3.78555 199.978C3.7724 199.15 3.09026 198.489 2.26193 198.502C1.43361 198.515 0.772782 199.197 0.78593 200.025L1.00019 213.524ZM41.3169 2.2458C61.0417 36.6624 55.0718 85.1147 41.9834 127.306C35.4573 148.342 27.1986 167.703 19.6091 182.795C11.9877 197.95 5.12224 208.637 1.42264 212.456L3.57736 214.544C7.62776 210.363 14.6669 199.3 22.2893 184.143C29.9436 168.922 38.2678 149.408 44.8487 128.194C57.9739 85.8851 64.3132 36.3374 43.9197 0.754073L41.3169 2.2458Z" fill="#FF4C00"/>
</svg>
