<?xml version="1.0" encoding="UTF-8"?>
<!DOCTYPE svg PUBLIC "-//W3C//DTD SVG 1.1//EN" "http://www.w3.org/Graphics/SVG/1.1/DTD/svg11.dtd">
<svg xmlns="http://www.w3.org/2000/svg" version="1.1" width="512px" height="512px" style="shape-rendering:geometricPrecision; text-rendering:geometricPrecision; image-rendering:optimizeQuality; fill-rule:evenodd; clip-rule:evenodd" xmlns:xlink="http://www.w3.org/1999/xlink">
<g><path style="opacity:0.997" fill="#6bf5c2" d="M 248.5,-0.5 C 253.167,-0.5 257.833,-0.5 262.5,-0.5C 264.273,0.892318 266.273,2.05898 268.5,3C 286,20.5 303.5,38 321,55.5C 325.881,64.7089 325.548,73.7089 320,82.5C 311.881,89.9454 302.714,91.4454 292.5,87C 287.032,82.5334 281.865,77.7 277,72.5C 276.5,123.166 276.333,173.832 276.5,224.5C 262.5,224.5 248.5,224.5 234.5,224.5C 234.667,173.832 234.5,123.166 234,72.5C 229.135,77.7 223.968,82.5334 218.5,87C 203.788,92.9918 193.288,88.8251 187,74.5C 185.669,67.7511 186.669,61.4178 190,55.5C 207.5,38 225,20.5 242.5,3C 244.727,2.05898 246.727,0.892318 248.5,-0.5 Z"/></g>
<g><path style="opacity:0.986" fill="#6bf5c2" d="M 131.5,256.5 C 116.293,265.268 101.96,275.268 88.5,286.5C 88.6667,239.499 88.5,192.499 88,145.5C 83.1347,150.7 77.9681,155.533 72.5,160C 57.5246,165.759 47.0246,161.259 41,146.5C 39.5377,139.532 40.871,133.199 45,127.5C 62.1667,110.333 79.3333,93.1667 96.5,76C 106.649,69.6966 116.315,70.3632 125.5,78C 141.333,93.8333 157.167,109.667 173,125.5C 182.643,138.474 181.143,149.974 168.5,160C 160.658,163.582 152.992,163.249 145.5,159C 141,154.5 136.5,150 132,145.5C 131.5,182.498 131.333,219.498 131.5,256.5 Z"/></g>
<g><path style="opacity:0.987" fill="#6bf5c2" d="M 422.5,286.5 C 409.347,275.09 395.014,265.423 379.5,257.5C 379.667,220.165 379.5,182.832 379,145.5C 374.5,150 370,154.5 365.5,159C 352.747,165.577 342.247,163.077 334,151.5C 330.163,142.02 331.497,133.353 338,125.5C 355.226,107.605 373.06,90.4386 391.5,74C 399.486,70.5938 407.153,71.2605 414.5,76C 431.667,93.1667 448.833,110.333 466,127.5C 473.143,139.244 471.643,149.744 461.5,159C 454.008,163.249 446.342,163.582 438.5,160C 433.032,155.533 427.865,150.7 423,145.5C 422.5,192.499 422.333,239.499 422.5,286.5 Z"/></g>
<g><path style="opacity:1" fill="#02f1a6" d="M 234.5,224.5 C 248.5,224.5 262.5,224.5 276.5,224.5C 276.5,235.833 276.5,247.167 276.5,258.5C 262.488,257.281 248.488,257.281 234.5,258.5C 234.5,247.167 234.5,235.833 234.5,224.5 Z"/></g>
<g><path style="opacity:1" fill="#08f1a6" d="M 131.5,256.5 C 131.5,269.167 131.5,281.833 131.5,294.5C 131.092,295.643 130.425,296.643 129.5,297.5C 114.628,308.033 100.961,320.033 88.5,333.5C 88.5,317.833 88.5,302.167 88.5,286.5C 101.96,275.268 116.293,265.268 131.5,256.5 Z"/></g>
<g><path style="opacity:0.992" fill="#918291" d="M 276.5,258.5 C 299.659,260.122 321.659,265.789 342.5,275.5C 353.105,292.046 361.605,309.713 368,328.5C 369.359,332.405 370.192,336.405 370.5,340.5C 362.356,334.021 353.689,328.354 344.5,323.5C 311.202,304.004 275.202,296.171 236.5,300C 211.262,302.579 187.929,310.412 166.5,323.5C 117.234,352.628 87.7338,395.628 78,452.5C 76.7986,461.125 76.2986,469.792 76.5,478.5C 64.8286,478.667 53.1619,478.5 41.5,478C 36.4909,475.816 34.1576,471.983 34.5,466.5C 37.6963,415.858 55.6963,371.524 88.5,333.5C 100.961,320.033 114.628,308.033 129.5,297.5C 130.425,296.643 131.092,295.643 131.5,294.5C 162.682,273.771 197.015,261.771 234.5,258.5C 248.488,257.281 262.488,257.281 276.5,258.5 Z"/></g>
<g><path style="opacity:1" fill="#06f1a6" d="M 379.5,257.5 C 395.014,265.423 409.347,275.09 422.5,286.5C 422.5,302.167 422.5,317.833 422.5,333.5C 415.365,325.532 407.698,318.032 399.5,311C 392.579,305.72 385.912,300.22 379.5,294.5C 379.5,282.167 379.5,269.833 379.5,257.5 Z"/></g>
<g><path style="opacity:0.999" fill="#7a6d79" d="M 342.5,275.5 C 355.574,280.536 367.907,286.869 379.5,294.5C 385.912,300.22 392.579,305.72 399.5,311C 407.698,318.032 415.365,325.532 422.5,333.5C 457.626,373.442 475.126,420.109 475,473.5C 473.457,475.378 471.624,476.878 469.5,478C 457.838,478.5 446.171,478.667 434.5,478.5C 434.018,432.234 418.518,391.9 388,357.5C 383.261,352.256 378.095,347.59 372.5,343.5C 371.833,342.5 371.167,341.5 370.5,340.5C 370.192,336.405 369.359,332.405 368,328.5C 361.605,309.713 353.105,292.046 342.5,275.5 Z"/></g>
<g><path style="opacity:1" fill="#fee077" d="M 344.5,323.5 C 339.167,332.833 333.833,342.167 328.5,351.5C 280.087,326.34 231.754,326.34 183.5,351.5C 182.817,351.137 182.15,350.804 181.5,350.5C 176.754,341.339 171.754,332.339 166.5,323.5C 187.929,310.412 211.262,302.579 236.5,300C 275.202,296.171 311.202,304.004 344.5,323.5 Z"/></g>
<g><path style="opacity:0.998" fill="#8ac8fd" d="M 166.5,323.5 C 171.754,332.339 176.754,341.339 181.5,350.5C 181.489,352.017 180.823,353.184 179.5,354C 134.546,383.049 111.213,424.549 109.5,478.5C 98.5,478.5 87.5,478.5 76.5,478.5C 76.2986,469.792 76.7986,461.125 78,452.5C 87.7338,395.628 117.234,352.628 166.5,323.5 Z"/></g>
<g><path style="opacity:1" fill="#fc8087" d="M 344.5,323.5 C 353.689,328.354 362.356,334.021 370.5,340.5C 371.167,341.5 371.833,342.5 372.5,343.5C 375.354,361.042 376.687,378.709 376.5,396.5C 363.699,378.031 347.699,363.031 328.5,351.5C 333.833,342.167 339.167,332.833 344.5,323.5 Z"/></g>
<g><path style="opacity:0.998" fill="#e9f5fe" d="M 328.5,351.5 C 347.699,363.031 363.699,378.031 376.5,396.5C 376.5,396.833 376.5,397.167 376.5,397.5C 374.633,425.968 367.299,452.968 354.5,478.5C 332.833,478.5 311.167,478.5 289.5,478.5C 288.763,475.275 288.097,471.941 287.5,468.5C 310.687,454.828 334.02,441.328 357.5,428C 361.875,422.879 361.209,418.545 355.5,415C 353.5,414.333 351.5,414.333 349.5,415C 326.437,428.526 303.437,442.026 280.5,455.5C 277.987,452.745 274.987,450.745 271.5,449.5C 252.647,440.727 237.48,445.06 226,462.5C 223.536,467.705 222.036,473.038 221.5,478.5C 184.167,478.5 146.833,478.5 109.5,478.5C 111.213,424.549 134.546,383.049 179.5,354C 180.823,353.184 181.489,352.017 181.5,350.5C 182.15,350.804 182.817,351.137 183.5,351.5C 231.754,326.34 280.087,326.34 328.5,351.5 Z"/></g>
<g><path style="opacity:0.997" fill="#fd646f" d="M 372.5,343.5 C 378.095,347.59 383.261,352.256 388,357.5C 418.518,391.9 434.018,432.234 434.5,478.5C 423.5,478.5 412.5,478.5 401.5,478.5C 401.384,448.828 393.051,421.828 376.5,397.5C 376.5,397.167 376.5,396.833 376.5,396.5C 376.687,378.709 375.354,361.042 372.5,343.5 Z"/></g>
<g><path style="opacity:0.992" fill="#d8eafc" d="M 376.5,397.5 C 393.051,421.828 401.384,448.828 401.5,478.5C 385.833,478.5 370.167,478.5 354.5,478.5C 367.299,452.968 374.633,425.968 376.5,397.5 Z"/></g>
<g><path style="opacity:1" fill="#fc8188" d="M 287.5,468.5 C 285.944,463.72 283.611,459.387 280.5,455.5C 303.437,442.026 326.437,428.526 349.5,415C 351.5,414.333 353.5,414.333 355.5,415C 361.209,418.545 361.875,422.879 357.5,428C 334.02,441.328 310.687,454.828 287.5,468.5 Z"/></g>
<g><path style="opacity:0.997" fill="#918291" d="M 271.5,449.5 C 274.944,465.004 270.611,478.171 258.5,489C 250.201,494.094 241.201,495.76 231.5,494C 229.187,493.338 226.854,492.838 224.5,492.5C 222.99,487.953 221.99,483.287 221.5,478.5C 222.036,473.038 223.536,467.705 226,462.5C 237.48,445.06 252.647,440.727 271.5,449.5 Z"/></g>
<g><path style="opacity:0.977" fill="#7a6d79" d="M 271.5,449.5 C 274.987,450.745 277.987,452.745 280.5,455.5C 283.611,459.387 285.944,463.72 287.5,468.5C 288.097,471.941 288.763,475.275 289.5,478.5C 288.193,495.457 279.526,506.457 263.5,511.5C 258.167,511.5 252.833,511.5 247.5,511.5C 237.167,508.509 229.5,502.176 224.5,492.5C 226.854,492.838 229.187,493.338 231.5,494C 241.201,495.76 250.201,494.094 258.5,489C 270.611,478.171 274.944,465.004 271.5,449.5 Z"/></g>
</svg>
